<mxfile host="app.diagrams.net" agent="Mozilla/5.0 (Macintosh; Intel Mac OS X 10_15_7) AppleWebKit/537.36 (KHTML, like Gecko) Chrome/130.0.0.0 Safari/537.36" version="25.0.3" pages="4">
  <diagram name="ExperimentParser (Data)" id="KaxNCHPlAd3soupvHOFD">
    <mxGraphModel dx="1831" dy="673" grid="1" gridSize="10" guides="1" tooltips="1" connect="1" arrows="1" fold="1" page="1" pageScale="1" pageWidth="827" pageHeight="1169" math="0" shadow="0">
      <root>
        <mxCell id="0" />
        <mxCell id="1" parent="0" />
        <mxCell id="UUjSxSd9ZGAvlRtZ6Mcp-4" value="Stage" style="swimlane;fontStyle=1;childLayout=stackLayout;horizontal=1;startSize=30;horizontalStack=0;resizeParent=1;resizeParentMax=0;resizeLast=0;collapsible=1;marginBottom=0;whiteSpace=wrap;html=1;fontFamily=Helvetica;" vertex="1" parent="1">
          <mxGeometry x="172.5" y="394" width="235" height="150" as="geometry" />
        </mxCell>
        <mxCell id="UUjSxSd9ZGAvlRtZ6Mcp-5" value="&lt;code&gt;+inputs: InputFileReference[]&lt;/code&gt;" style="text;strokeColor=none;fillColor=none;align=left;verticalAlign=middle;spacingLeft=4;spacingRight=4;overflow=hidden;points=[[0,0.5],[1,0.5]];portConstraint=eastwest;rotatable=0;whiteSpace=wrap;html=1;fontSize=12;fontFamily=Helvetica;horizontal=1;" vertex="1" parent="UUjSxSd9ZGAvlRtZ6Mcp-4">
          <mxGeometry y="30" width="235" height="30" as="geometry" />
        </mxCell>
        <mxCell id="UUjSxSd9ZGAvlRtZ6Mcp-6" value="+ outputs: OutputFileReference[]" style="text;strokeColor=none;fillColor=none;align=left;verticalAlign=middle;spacingLeft=4;spacingRight=4;overflow=hidden;points=[[0,0.5],[1,0.5]];portConstraint=eastwest;rotatable=0;whiteSpace=wrap;html=1;" vertex="1" parent="UUjSxSd9ZGAvlRtZ6Mcp-4">
          <mxGeometry y="60" width="235" height="30" as="geometry" />
        </mxCell>
        <mxCell id="UUjSxSd9ZGAvlRtZ6Mcp-7" value="+ env: EnvironmentVar[]" style="text;strokeColor=none;fillColor=none;align=left;verticalAlign=middle;spacingLeft=4;spacingRight=4;overflow=hidden;points=[[0,0.5],[1,0.5]];portConstraint=eastwest;rotatable=0;whiteSpace=wrap;html=1;" vertex="1" parent="UUjSxSd9ZGAvlRtZ6Mcp-4">
          <mxGeometry y="90" width="235" height="30" as="geometry" />
        </mxCell>
        <mxCell id="UUjSxSd9ZGAvlRtZ6Mcp-8" value="+ script:&amp;nbsp;&lt;span style=&quot;text-align: center;&quot;&gt;Script&lt;/span&gt;" style="text;strokeColor=none;fillColor=none;align=left;verticalAlign=middle;spacingLeft=4;spacingRight=4;overflow=hidden;points=[[0,0.5],[1,0.5]];portConstraint=eastwest;rotatable=0;whiteSpace=wrap;html=1;" vertex="1" parent="UUjSxSd9ZGAvlRtZ6Mcp-4">
          <mxGeometry y="120" width="235" height="30" as="geometry" />
        </mxCell>
        <mxCell id="UUjSxSd9ZGAvlRtZ6Mcp-10" style="edgeStyle=orthogonalEdgeStyle;rounded=0;orthogonalLoop=1;jettySize=auto;html=1;endArrow=diamondThin;endFill=1;" edge="1" parent="1" source="UUjSxSd9ZGAvlRtZ6Mcp-13" target="UUjSxSd9ZGAvlRtZ6Mcp-15">
          <mxGeometry relative="1" as="geometry">
            <Array as="points">
              <mxPoint x="290" y="240" />
              <mxPoint x="290" y="240" />
            </Array>
          </mxGeometry>
        </mxCell>
        <mxCell id="UUjSxSd9ZGAvlRtZ6Mcp-11" value="n" style="edgeLabel;html=1;align=center;verticalAlign=middle;resizable=0;points=[];" connectable="0" vertex="1" parent="UUjSxSd9ZGAvlRtZ6Mcp-10">
          <mxGeometry x="-0.84" y="2" relative="1" as="geometry">
            <mxPoint x="9" y="-7" as="offset" />
          </mxGeometry>
        </mxCell>
        <mxCell id="UUjSxSd9ZGAvlRtZ6Mcp-12" value="1" style="edgeLabel;html=1;align=center;verticalAlign=middle;resizable=0;points=[];" connectable="0" vertex="1" parent="UUjSxSd9ZGAvlRtZ6Mcp-10">
          <mxGeometry x="0.68" y="-4" relative="1" as="geometry">
            <mxPoint as="offset" />
          </mxGeometry>
        </mxCell>
        <mxCell id="UUjSxSd9ZGAvlRtZ6Mcp-13" value="Pipeline" style="swimlane;fontStyle=1;childLayout=stackLayout;horizontal=1;startSize=30;horizontalStack=0;resizeParent=1;resizeParentMax=0;resizeLast=0;collapsible=1;marginBottom=0;whiteSpace=wrap;html=1;" vertex="1" parent="1">
          <mxGeometry x="220" y="288" width="140" height="60" as="geometry" />
        </mxCell>
        <mxCell id="UUjSxSd9ZGAvlRtZ6Mcp-14" value="+ stages: Stage[]" style="text;strokeColor=none;fillColor=none;align=left;verticalAlign=middle;spacingLeft=4;spacingRight=4;overflow=hidden;points=[[0,0.5],[1,0.5]];portConstraint=eastwest;rotatable=0;whiteSpace=wrap;html=1;" vertex="1" parent="UUjSxSd9ZGAvlRtZ6Mcp-13">
          <mxGeometry y="30" width="140" height="30" as="geometry" />
        </mxCell>
        <mxCell id="UUjSxSd9ZGAvlRtZ6Mcp-15" value="Experiment" style="swimlane;fontStyle=1;childLayout=stackLayout;horizontal=1;startSize=30;horizontalStack=0;resizeParent=1;resizeParentMax=0;resizeLast=0;collapsible=1;marginBottom=0;whiteSpace=wrap;html=1;" vertex="1" parent="1">
          <mxGeometry x="220" y="160" width="140" height="60" as="geometry" />
        </mxCell>
        <mxCell id="UUjSxSd9ZGAvlRtZ6Mcp-16" value="+ pipelines: Pipeline[]" style="text;strokeColor=none;fillColor=none;align=left;verticalAlign=middle;spacingLeft=4;spacingRight=4;overflow=hidden;points=[[0,0.5],[1,0.5]];portConstraint=eastwest;rotatable=0;whiteSpace=wrap;html=1;" vertex="1" parent="UUjSxSd9ZGAvlRtZ6Mcp-15">
          <mxGeometry y="30" width="140" height="30" as="geometry" />
        </mxCell>
        <mxCell id="UUjSxSd9ZGAvlRtZ6Mcp-18" value="&lt;span style=&quot;&quot;&gt;Script&lt;/span&gt;" style="swimlane;fontStyle=1;align=center;verticalAlign=top;childLayout=stackLayout;horizontal=1;startSize=26;horizontalStack=0;resizeParent=1;resizeParentMax=0;resizeLast=0;collapsible=1;marginBottom=0;whiteSpace=wrap;html=1;" vertex="1" parent="1">
          <mxGeometry x="370" y="585" width="150" height="60" as="geometry" />
        </mxCell>
        <mxCell id="UUjSxSd9ZGAvlRtZ6Mcp-19" value="+ contents" style="text;strokeColor=none;fillColor=none;align=left;verticalAlign=top;spacingLeft=4;spacingRight=4;overflow=hidden;rotatable=0;points=[[0,0.5],[1,0.5]];portConstraint=eastwest;whiteSpace=wrap;html=1;" vertex="1" parent="UUjSxSd9ZGAvlRtZ6Mcp-18">
          <mxGeometry y="26" width="150" height="26" as="geometry" />
        </mxCell>
        <mxCell id="UUjSxSd9ZGAvlRtZ6Mcp-20" value="" style="line;strokeWidth=1;fillColor=none;align=left;verticalAlign=middle;spacingTop=-1;spacingLeft=3;spacingRight=3;rotatable=0;labelPosition=right;points=[];portConstraint=eastwest;strokeColor=inherit;" vertex="1" parent="UUjSxSd9ZGAvlRtZ6Mcp-18">
          <mxGeometry y="52" width="150" height="8" as="geometry" />
        </mxCell>
        <mxCell id="vZz71LmH52vY3L3l6UmZ-1" value="EnvironmentVar" style="swimlane;fontStyle=1;childLayout=stackLayout;horizontal=1;startSize=30;horizontalStack=0;resizeParent=1;resizeParentMax=0;resizeLast=0;collapsible=1;marginBottom=0;whiteSpace=wrap;html=1;" vertex="1" parent="1">
          <mxGeometry x="-50" y="454" width="160" height="90" as="geometry" />
        </mxCell>
        <mxCell id="vZz71LmH52vY3L3l6UmZ-2" value="&lt;font face=&quot;monospace&quot;&gt;+ name: string&lt;/font&gt;" style="text;strokeColor=none;fillColor=none;align=left;verticalAlign=middle;spacingLeft=4;spacingRight=4;overflow=hidden;points=[[0,0.5],[1,0.5]];portConstraint=eastwest;rotatable=0;whiteSpace=wrap;html=1;" vertex="1" parent="vZz71LmH52vY3L3l6UmZ-1">
          <mxGeometry y="30" width="160" height="30" as="geometry" />
        </mxCell>
        <mxCell id="vZz71LmH52vY3L3l6UmZ-3" value="+ value: string" style="text;strokeColor=none;fillColor=none;align=left;verticalAlign=middle;spacingLeft=4;spacingRight=4;overflow=hidden;points=[[0,0.5],[1,0.5]];portConstraint=eastwest;rotatable=0;whiteSpace=wrap;html=1;" vertex="1" parent="vZz71LmH52vY3L3l6UmZ-1">
          <mxGeometry y="60" width="160" height="30" as="geometry" />
        </mxCell>
        <mxCell id="vZz71LmH52vY3L3l6UmZ-9" style="edgeStyle=orthogonalEdgeStyle;rounded=0;orthogonalLoop=1;jettySize=auto;html=1;endArrow=diamondThin;endFill=1;" edge="1" parent="1" source="UUjSxSd9ZGAvlRtZ6Mcp-4" target="UUjSxSd9ZGAvlRtZ6Mcp-13">
          <mxGeometry relative="1" as="geometry">
            <Array as="points" />
            <mxPoint x="300" y="298" as="sourcePoint" />
            <mxPoint x="300" y="230" as="targetPoint" />
          </mxGeometry>
        </mxCell>
        <mxCell id="vZz71LmH52vY3L3l6UmZ-10" value="n" style="edgeLabel;html=1;align=center;verticalAlign=middle;resizable=0;points=[];" connectable="0" vertex="1" parent="vZz71LmH52vY3L3l6UmZ-9">
          <mxGeometry x="-0.84" y="2" relative="1" as="geometry">
            <mxPoint x="9" y="-7" as="offset" />
          </mxGeometry>
        </mxCell>
        <mxCell id="vZz71LmH52vY3L3l6UmZ-11" value="1" style="edgeLabel;html=1;align=center;verticalAlign=middle;resizable=0;points=[];" connectable="0" vertex="1" parent="vZz71LmH52vY3L3l6UmZ-9">
          <mxGeometry x="0.68" y="-4" relative="1" as="geometry">
            <mxPoint y="5" as="offset" />
          </mxGeometry>
        </mxCell>
        <mxCell id="vZz71LmH52vY3L3l6UmZ-18" style="edgeStyle=orthogonalEdgeStyle;rounded=0;orthogonalLoop=1;jettySize=auto;html=1;endArrow=diamondThin;endFill=1;" edge="1" parent="1" source="vZz71LmH52vY3L3l6UmZ-1" target="UUjSxSd9ZGAvlRtZ6Mcp-7">
          <mxGeometry relative="1" as="geometry">
            <Array as="points" />
            <mxPoint x="300" y="404" as="sourcePoint" />
            <mxPoint x="300" y="358" as="targetPoint" />
          </mxGeometry>
        </mxCell>
        <mxCell id="vZz71LmH52vY3L3l6UmZ-19" value="n" style="edgeLabel;html=1;align=center;verticalAlign=middle;resizable=0;points=[];" connectable="0" vertex="1" parent="vZz71LmH52vY3L3l6UmZ-18">
          <mxGeometry x="-0.84" y="2" relative="1" as="geometry">
            <mxPoint x="9" y="-7" as="offset" />
          </mxGeometry>
        </mxCell>
        <mxCell id="vZz71LmH52vY3L3l6UmZ-20" value="1" style="edgeLabel;html=1;align=center;verticalAlign=middle;resizable=0;points=[];" connectable="0" vertex="1" parent="vZz71LmH52vY3L3l6UmZ-18">
          <mxGeometry x="0.68" y="-4" relative="1" as="geometry">
            <mxPoint y="5" as="offset" />
          </mxGeometry>
        </mxCell>
        <mxCell id="vZz71LmH52vY3L3l6UmZ-21" style="edgeStyle=orthogonalEdgeStyle;rounded=0;orthogonalLoop=1;jettySize=auto;html=1;endArrow=diamondThin;endFill=1;" edge="1" parent="1" source="UUjSxSd9ZGAvlRtZ6Mcp-18" target="UUjSxSd9ZGAvlRtZ6Mcp-8">
          <mxGeometry relative="1" as="geometry">
            <Array as="points" />
            <mxPoint x="140" y="640" as="sourcePoint" />
            <mxPoint x="300" y="554" as="targetPoint" />
          </mxGeometry>
        </mxCell>
        <mxCell id="vZz71LmH52vY3L3l6UmZ-22" value="n" style="edgeLabel;html=1;align=center;verticalAlign=middle;resizable=0;points=[];" connectable="0" vertex="1" parent="vZz71LmH52vY3L3l6UmZ-21">
          <mxGeometry x="-0.84" y="2" relative="1" as="geometry">
            <mxPoint x="9" y="-7" as="offset" />
          </mxGeometry>
        </mxCell>
        <mxCell id="vZz71LmH52vY3L3l6UmZ-23" value="1" style="edgeLabel;html=1;align=center;verticalAlign=middle;resizable=0;points=[];" connectable="0" vertex="1" parent="vZz71LmH52vY3L3l6UmZ-21">
          <mxGeometry x="0.68" y="-4" relative="1" as="geometry">
            <mxPoint y="5" as="offset" />
          </mxGeometry>
        </mxCell>
        <mxCell id="vZz71LmH52vY3L3l6UmZ-24" style="edgeStyle=orthogonalEdgeStyle;rounded=0;orthogonalLoop=1;jettySize=auto;html=1;endArrow=diamondThin;endFill=1;" edge="1" parent="1" source="vZz71LmH52vY3L3l6UmZ-39" target="UUjSxSd9ZGAvlRtZ6Mcp-6">
          <mxGeometry relative="1" as="geometry">
            <Array as="points" />
            <mxPoint x="595.04" y="529" as="sourcePoint" />
            <mxPoint x="300" y="554" as="targetPoint" />
          </mxGeometry>
        </mxCell>
        <mxCell id="vZz71LmH52vY3L3l6UmZ-25" value="n" style="edgeLabel;html=1;align=center;verticalAlign=middle;resizable=0;points=[];" connectable="0" vertex="1" parent="vZz71LmH52vY3L3l6UmZ-24">
          <mxGeometry x="-0.84" y="2" relative="1" as="geometry">
            <mxPoint x="9" y="-7" as="offset" />
          </mxGeometry>
        </mxCell>
        <mxCell id="vZz71LmH52vY3L3l6UmZ-26" value="1" style="edgeLabel;html=1;align=center;verticalAlign=middle;resizable=0;points=[];" connectable="0" vertex="1" parent="vZz71LmH52vY3L3l6UmZ-24">
          <mxGeometry x="0.68" y="-4" relative="1" as="geometry">
            <mxPoint x="-23" y="15" as="offset" />
          </mxGeometry>
        </mxCell>
        <mxCell id="vZz71LmH52vY3L3l6UmZ-27" style="edgeStyle=orthogonalEdgeStyle;rounded=0;orthogonalLoop=1;jettySize=auto;html=1;endArrow=diamondThin;endFill=1;" edge="1" parent="1" source="vZz71LmH52vY3L3l6UmZ-44" target="UUjSxSd9ZGAvlRtZ6Mcp-5">
          <mxGeometry relative="1" as="geometry">
            <Array as="points" />
            <mxPoint x="785.04" y="528" as="sourcePoint" />
            <mxPoint x="380" y="479" as="targetPoint" />
          </mxGeometry>
        </mxCell>
        <mxCell id="vZz71LmH52vY3L3l6UmZ-28" value="n" style="edgeLabel;html=1;align=center;verticalAlign=middle;resizable=0;points=[];" connectable="0" vertex="1" parent="vZz71LmH52vY3L3l6UmZ-27">
          <mxGeometry x="-0.84" y="2" relative="1" as="geometry">
            <mxPoint x="9" y="-7" as="offset" />
          </mxGeometry>
        </mxCell>
        <mxCell id="vZz71LmH52vY3L3l6UmZ-29" value="1" style="edgeLabel;html=1;align=center;verticalAlign=middle;resizable=0;points=[];" connectable="0" vertex="1" parent="vZz71LmH52vY3L3l6UmZ-27">
          <mxGeometry x="0.68" y="-4" relative="1" as="geometry">
            <mxPoint x="-65" y="-5" as="offset" />
          </mxGeometry>
        </mxCell>
        <mxCell id="vZz71LmH52vY3L3l6UmZ-30" value="FileReference" style="swimlane;fontStyle=1;align=center;verticalAlign=top;childLayout=stackLayout;horizontal=1;startSize=26;horizontalStack=0;resizeParent=1;resizeParentMax=0;resizeLast=0;collapsible=1;marginBottom=0;whiteSpace=wrap;html=1;" vertex="1" parent="1">
          <mxGeometry x="620" y="310" width="150" height="60" as="geometry" />
        </mxCell>
        <mxCell id="vZz71LmH52vY3L3l6UmZ-31" value="+ path: string" style="text;strokeColor=none;fillColor=none;align=left;verticalAlign=top;spacingLeft=4;spacingRight=4;overflow=hidden;rotatable=0;points=[[0,0.5],[1,0.5]];portConstraint=eastwest;whiteSpace=wrap;html=1;" vertex="1" parent="vZz71LmH52vY3L3l6UmZ-30">
          <mxGeometry y="26" width="150" height="26" as="geometry" />
        </mxCell>
        <mxCell id="vZz71LmH52vY3L3l6UmZ-32" value="" style="line;strokeWidth=1;fillColor=none;align=left;verticalAlign=middle;spacingTop=-1;spacingLeft=3;spacingRight=3;rotatable=0;labelPosition=right;points=[];portConstraint=eastwest;strokeColor=inherit;" vertex="1" parent="vZz71LmH52vY3L3l6UmZ-30">
          <mxGeometry y="52" width="150" height="8" as="geometry" />
        </mxCell>
        <mxCell id="vZz71LmH52vY3L3l6UmZ-36" value="Extends" style="endArrow=block;endSize=16;endFill=0;html=1;rounded=0;" edge="1" parent="1" source="vZz71LmH52vY3L3l6UmZ-39" target="vZz71LmH52vY3L3l6UmZ-30">
          <mxGeometry width="160" relative="1" as="geometry">
            <mxPoint x="601.1199999999999" y="529" as="sourcePoint" />
            <mxPoint x="610" y="500" as="targetPoint" />
          </mxGeometry>
        </mxCell>
        <mxCell id="vZz71LmH52vY3L3l6UmZ-37" value="Extends" style="endArrow=block;endSize=16;endFill=0;html=1;rounded=0;" edge="1" parent="1" source="vZz71LmH52vY3L3l6UmZ-44" target="vZz71LmH52vY3L3l6UmZ-30">
          <mxGeometry width="160" relative="1" as="geometry">
            <mxPoint x="778.1726907630523" y="528" as="sourcePoint" />
            <mxPoint x="656" y="482" as="targetPoint" />
          </mxGeometry>
        </mxCell>
        <mxCell id="vZz71LmH52vY3L3l6UmZ-39" value="OutputFileReference" style="swimlane;fontStyle=1;align=center;verticalAlign=top;childLayout=stackLayout;horizontal=1;startSize=26;horizontalStack=0;resizeParent=1;resizeParentMax=0;resizeLast=0;collapsible=1;marginBottom=0;whiteSpace=wrap;html=1;" vertex="1" parent="1">
          <mxGeometry x="540" y="490" width="150" height="34" as="geometry" />
        </mxCell>
        <mxCell id="vZz71LmH52vY3L3l6UmZ-41" value="" style="line;strokeWidth=1;fillColor=none;align=left;verticalAlign=middle;spacingTop=-1;spacingLeft=3;spacingRight=3;rotatable=0;labelPosition=right;points=[];portConstraint=eastwest;strokeColor=inherit;" vertex="1" parent="vZz71LmH52vY3L3l6UmZ-39">
          <mxGeometry y="26" width="150" height="8" as="geometry" />
        </mxCell>
        <mxCell id="vZz71LmH52vY3L3l6UmZ-44" value="&lt;span style=&quot;font-weight: 400;&quot;&gt;&amp;nbsp;&lt;/span&gt;InputFileReference" style="swimlane;fontStyle=1;align=center;verticalAlign=top;childLayout=stackLayout;horizontal=1;startSize=26;horizontalStack=0;resizeParent=1;resizeParentMax=0;resizeLast=0;collapsible=1;marginBottom=0;whiteSpace=wrap;html=1;" vertex="1" parent="1">
          <mxGeometry x="710" y="490" width="150" height="34" as="geometry" />
        </mxCell>
        <mxCell id="vZz71LmH52vY3L3l6UmZ-45" value="" style="line;strokeWidth=1;fillColor=none;align=left;verticalAlign=middle;spacingTop=-1;spacingLeft=3;spacingRight=3;rotatable=0;labelPosition=right;points=[];portConstraint=eastwest;strokeColor=inherit;" vertex="1" parent="vZz71LmH52vY3L3l6UmZ-44">
          <mxGeometry y="26" width="150" height="8" as="geometry" />
        </mxCell>
      </root>
    </mxGraphModel>
  </diagram>
  <diagram id="-oVQQYXaCT9ke1bC5q4z" name="SyntaxAnalyzer (Data)">
    <mxGraphModel grid="1" page="1" gridSize="10" guides="1" tooltips="1" connect="1" arrows="1" fold="1" pageScale="1" pageWidth="827" pageHeight="1169" math="0" shadow="0">
      <root>
        <mxCell id="0" />
        <mxCell id="1" parent="0" />
        <mxCell id="a2CyGNUo5_PYGWJwH10F-1" value="Token" style="swimlane;fontStyle=1;align=center;verticalAlign=top;childLayout=stackLayout;horizontal=1;startSize=26;horizontalStack=0;resizeParent=1;resizeParentMax=0;resizeLast=0;collapsible=1;marginBottom=0;whiteSpace=wrap;html=1;" vertex="1" parent="1">
          <mxGeometry x="300" y="250" width="350" height="112" as="geometry" />
        </mxCell>
        <mxCell id="a2CyGNUo5_PYGWJwH10F-2" value="" style="line;strokeWidth=1;fillColor=none;align=left;verticalAlign=middle;spacingTop=-1;spacingLeft=3;spacingRight=3;rotatable=0;labelPosition=right;points=[];portConstraint=eastwest;strokeColor=inherit;" vertex="1" parent="a2CyGNUo5_PYGWJwH10F-1">
          <mxGeometry y="26" width="350" height="8" as="geometry" />
        </mxCell>
        <mxCell id="a2CyGNUo5_PYGWJwH10F-3" value="+ type: YAML.ETokenType" style="text;strokeColor=none;fillColor=none;align=left;verticalAlign=top;spacingLeft=4;spacingRight=4;overflow=hidden;rotatable=0;points=[[0,0.5],[1,0.5]];portConstraint=eastwest;whiteSpace=wrap;html=1;" vertex="1" parent="a2CyGNUo5_PYGWJwH10F-1">
          <mxGeometry y="34" width="350" height="26" as="geometry" />
        </mxCell>
        <mxCell id="a2CyGNUo5_PYGWJwH10F-4" value="+ value: String" style="text;strokeColor=none;fillColor=none;align=left;verticalAlign=top;spacingLeft=4;spacingRight=4;overflow=hidden;rotatable=0;points=[[0,0.5],[1,0.5]];portConstraint=eastwest;whiteSpace=wrap;html=1;" vertex="1" parent="a2CyGNUo5_PYGWJwH10F-1">
          <mxGeometry y="60" width="350" height="26" as="geometry" />
        </mxCell>
        <mxCell id="a2CyGNUo5_PYGWJwH10F-5" value="+ (PK) position: uint16" style="text;strokeColor=none;fillColor=none;align=left;verticalAlign=top;spacingLeft=4;spacingRight=4;overflow=hidden;rotatable=0;points=[[0,0.5],[1,0.5]];portConstraint=eastwest;whiteSpace=wrap;html=1;" vertex="1" parent="a2CyGNUo5_PYGWJwH10F-1">
          <mxGeometry y="86" width="350" height="26" as="geometry" />
        </mxCell>
        <mxCell id="a2CyGNUo5_PYGWJwH10F-14" value="1" style="edgeStyle=orthogonalEdgeStyle;rounded=0;orthogonalLoop=1;jettySize=auto;html=1;endArrow=none;endFill=0;" edge="1" parent="1" source="a2CyGNUo5_PYGWJwH10F-12" target="a2CyGNUo5_PYGWJwH10F-13">
          <mxGeometry x="-0.7143" y="10" relative="1" as="geometry">
            <mxPoint as="offset" />
          </mxGeometry>
        </mxCell>
        <mxCell id="a2CyGNUo5_PYGWJwH10F-12" value="ExperimentFile" style="rounded=0;whiteSpace=wrap;html=1;strokeWidth=2;" vertex="1" parent="1">
          <mxGeometry x="180" y="476" width="120" height="60" as="geometry" />
        </mxCell>
        <mxCell id="a2CyGNUo5_PYGWJwH10F-16" style="edgeStyle=orthogonalEdgeStyle;rounded=0;orthogonalLoop=1;jettySize=auto;html=1;endArrow=none;endFill=0;" edge="1" parent="1" source="a2CyGNUo5_PYGWJwH10F-13" target="a2CyGNUo5_PYGWJwH10F-15">
          <mxGeometry relative="1" as="geometry" />
        </mxCell>
        <mxCell id="a2CyGNUo5_PYGWJwH10F-17" value="n" style="edgeLabel;html=1;align=center;verticalAlign=middle;resizable=0;points=[];" vertex="1" connectable="0" parent="a2CyGNUo5_PYGWJwH10F-16">
          <mxGeometry x="0.513" y="-1" relative="1" as="geometry">
            <mxPoint y="-11" as="offset" />
          </mxGeometry>
        </mxCell>
        <mxCell id="a2CyGNUo5_PYGWJwH10F-13" value="contains" style="rhombus;whiteSpace=wrap;html=1;" vertex="1" parent="1">
          <mxGeometry x="370" y="466" width="80" height="80" as="geometry" />
        </mxCell>
        <mxCell id="a2CyGNUo5_PYGWJwH10F-15" value="Token" style="rounded=0;whiteSpace=wrap;html=1;" vertex="1" parent="1">
          <mxGeometry x="500" y="476" width="120" height="60" as="geometry" />
        </mxCell>
        <mxCell id="a2CyGNUo5_PYGWJwH10F-18" value="type" style="ellipse;whiteSpace=wrap;html=1;" vertex="1" parent="1">
          <mxGeometry x="710" y="362" width="120" height="80" as="geometry" />
        </mxCell>
        <mxCell id="a2CyGNUo5_PYGWJwH10F-19" value="value" style="ellipse;whiteSpace=wrap;html=1;" vertex="1" parent="1">
          <mxGeometry x="710" y="466" width="120" height="80" as="geometry" />
        </mxCell>
        <mxCell id="a2CyGNUo5_PYGWJwH10F-20" value="position" style="ellipse;whiteSpace=wrap;html=1;" vertex="1" parent="1">
          <mxGeometry x="710" y="566" width="120" height="80" as="geometry" />
        </mxCell>
        <mxCell id="a2CyGNUo5_PYGWJwH10F-21" style="edgeStyle=orthogonalEdgeStyle;rounded=0;orthogonalLoop=1;jettySize=auto;html=1;endArrow=none;endFill=0;entryX=0;entryY=0.5;entryDx=0;entryDy=0;" edge="1" parent="1" source="a2CyGNUo5_PYGWJwH10F-15" target="a2CyGNUo5_PYGWJwH10F-18">
          <mxGeometry relative="1" as="geometry">
            <mxPoint x="460" y="516" as="sourcePoint" />
            <mxPoint x="510" y="516" as="targetPoint" />
          </mxGeometry>
        </mxCell>
        <mxCell id="a2CyGNUo5_PYGWJwH10F-23" style="edgeStyle=orthogonalEdgeStyle;rounded=0;orthogonalLoop=1;jettySize=auto;html=1;endArrow=none;endFill=0;entryX=0;entryY=0.5;entryDx=0;entryDy=0;" edge="1" parent="1" source="a2CyGNUo5_PYGWJwH10F-15" target="a2CyGNUo5_PYGWJwH10F-19">
          <mxGeometry relative="1" as="geometry">
            <mxPoint x="630" y="516" as="sourcePoint" />
            <mxPoint x="720" y="386" as="targetPoint" />
          </mxGeometry>
        </mxCell>
        <mxCell id="a2CyGNUo5_PYGWJwH10F-24" style="edgeStyle=orthogonalEdgeStyle;rounded=0;orthogonalLoop=1;jettySize=auto;html=1;endArrow=none;endFill=0;entryX=0;entryY=0.5;entryDx=0;entryDy=0;" edge="1" parent="1" source="a2CyGNUo5_PYGWJwH10F-15" target="a2CyGNUo5_PYGWJwH10F-20">
          <mxGeometry relative="1" as="geometry">
            <mxPoint x="630" y="516" as="sourcePoint" />
            <mxPoint x="720" y="481" as="targetPoint" />
          </mxGeometry>
        </mxCell>
      </root>
    </mxGraphModel>
  </diagram>
  <diagram id="ay65xEYzQbyez4lMCIAC" name="ExperimentParser (Class)">
    <mxGraphModel grid="1" page="1" gridSize="10" guides="1" tooltips="1" connect="1" arrows="1" fold="1" pageScale="1" pageWidth="827" pageHeight="1169" math="0" shadow="0">
      <root>
        <mxCell id="0" />
        <mxCell id="1" parent="0" />
        <mxCell id="fSix446y4lYJShoWMJe9-1" value="Stage" style="swimlane;fontStyle=1;childLayout=stackLayout;horizontal=1;startSize=30;horizontalStack=0;resizeParent=1;resizeParentMax=0;resizeLast=0;collapsible=1;marginBottom=0;whiteSpace=wrap;html=1;fontFamily=Helvetica;" vertex="1" parent="1">
          <mxGeometry x="172.5" y="394" width="235" height="150" as="geometry" />
        </mxCell>
        <mxCell id="fSix446y4lYJShoWMJe9-2" value="&lt;code&gt;+inputs: InputFileReference[]&lt;/code&gt;" style="text;strokeColor=none;fillColor=none;align=left;verticalAlign=middle;spacingLeft=4;spacingRight=4;overflow=hidden;points=[[0,0.5],[1,0.5]];portConstraint=eastwest;rotatable=0;whiteSpace=wrap;html=1;fontSize=12;fontFamily=Helvetica;horizontal=1;" vertex="1" parent="fSix446y4lYJShoWMJe9-1">
          <mxGeometry y="30" width="235" height="30" as="geometry" />
        </mxCell>
        <mxCell id="fSix446y4lYJShoWMJe9-3" value="+ outputs: OutputFileReference[]" style="text;strokeColor=none;fillColor=none;align=left;verticalAlign=middle;spacingLeft=4;spacingRight=4;overflow=hidden;points=[[0,0.5],[1,0.5]];portConstraint=eastwest;rotatable=0;whiteSpace=wrap;html=1;" vertex="1" parent="fSix446y4lYJShoWMJe9-1">
          <mxGeometry y="60" width="235" height="30" as="geometry" />
        </mxCell>
        <mxCell id="fSix446y4lYJShoWMJe9-4" value="+ env: EnvironmentVar[]" style="text;strokeColor=none;fillColor=none;align=left;verticalAlign=middle;spacingLeft=4;spacingRight=4;overflow=hidden;points=[[0,0.5],[1,0.5]];portConstraint=eastwest;rotatable=0;whiteSpace=wrap;html=1;" vertex="1" parent="fSix446y4lYJShoWMJe9-1">
          <mxGeometry y="90" width="235" height="30" as="geometry" />
        </mxCell>
        <mxCell id="fSix446y4lYJShoWMJe9-5" value="+ script:&amp;nbsp;&lt;span style=&quot;text-align: center;&quot;&gt;Script&lt;/span&gt;" style="text;strokeColor=none;fillColor=none;align=left;verticalAlign=middle;spacingLeft=4;spacingRight=4;overflow=hidden;points=[[0,0.5],[1,0.5]];portConstraint=eastwest;rotatable=0;whiteSpace=wrap;html=1;" vertex="1" parent="fSix446y4lYJShoWMJe9-1">
          <mxGeometry y="120" width="235" height="30" as="geometry" />
        </mxCell>
        <mxCell id="fSix446y4lYJShoWMJe9-6" style="edgeStyle=orthogonalEdgeStyle;rounded=0;orthogonalLoop=1;jettySize=auto;html=1;endArrow=diamondThin;endFill=1;" edge="1" parent="1" source="fSix446y4lYJShoWMJe9-9" target="fSix446y4lYJShoWMJe9-11">
          <mxGeometry relative="1" as="geometry">
            <Array as="points">
              <mxPoint x="290" y="240" />
              <mxPoint x="290" y="240" />
            </Array>
          </mxGeometry>
        </mxCell>
        <mxCell id="fSix446y4lYJShoWMJe9-7" value="n" style="edgeLabel;html=1;align=center;verticalAlign=middle;resizable=0;points=[];" connectable="0" vertex="1" parent="fSix446y4lYJShoWMJe9-6">
          <mxGeometry x="-0.84" y="2" relative="1" as="geometry">
            <mxPoint x="9" y="-7" as="offset" />
          </mxGeometry>
        </mxCell>
        <mxCell id="fSix446y4lYJShoWMJe9-8" value="1" style="edgeLabel;html=1;align=center;verticalAlign=middle;resizable=0;points=[];" connectable="0" vertex="1" parent="fSix446y4lYJShoWMJe9-6">
          <mxGeometry x="0.68" y="-4" relative="1" as="geometry">
            <mxPoint as="offset" />
          </mxGeometry>
        </mxCell>
        <mxCell id="fSix446y4lYJShoWMJe9-9" value="Pipeline" style="swimlane;fontStyle=1;childLayout=stackLayout;horizontal=1;startSize=30;horizontalStack=0;resizeParent=1;resizeParentMax=0;resizeLast=0;collapsible=1;marginBottom=0;whiteSpace=wrap;html=1;" vertex="1" parent="1">
          <mxGeometry x="220" y="288" width="140" height="60" as="geometry" />
        </mxCell>
        <mxCell id="fSix446y4lYJShoWMJe9-10" value="+ stages: Stage[]" style="text;strokeColor=none;fillColor=none;align=left;verticalAlign=middle;spacingLeft=4;spacingRight=4;overflow=hidden;points=[[0,0.5],[1,0.5]];portConstraint=eastwest;rotatable=0;whiteSpace=wrap;html=1;" vertex="1" parent="fSix446y4lYJShoWMJe9-9">
          <mxGeometry y="30" width="140" height="30" as="geometry" />
        </mxCell>
        <mxCell id="fSix446y4lYJShoWMJe9-11" value="Experiment" style="swimlane;fontStyle=1;childLayout=stackLayout;horizontal=1;startSize=30;horizontalStack=0;resizeParent=1;resizeParentMax=0;resizeLast=0;collapsible=1;marginBottom=0;whiteSpace=wrap;html=1;" vertex="1" parent="1">
          <mxGeometry x="220" y="160" width="140" height="60" as="geometry" />
        </mxCell>
        <mxCell id="fSix446y4lYJShoWMJe9-12" value="+ pipelines: Pipeline[]" style="text;strokeColor=none;fillColor=none;align=left;verticalAlign=middle;spacingLeft=4;spacingRight=4;overflow=hidden;points=[[0,0.5],[1,0.5]];portConstraint=eastwest;rotatable=0;whiteSpace=wrap;html=1;" vertex="1" parent="fSix446y4lYJShoWMJe9-11">
          <mxGeometry y="30" width="140" height="30" as="geometry" />
        </mxCell>
        <mxCell id="fSix446y4lYJShoWMJe9-13" value="&lt;span style=&quot;&quot;&gt;Script&lt;/span&gt;" style="swimlane;fontStyle=1;align=center;verticalAlign=top;childLayout=stackLayout;horizontal=1;startSize=26;horizontalStack=0;resizeParent=1;resizeParentMax=0;resizeLast=0;collapsible=1;marginBottom=0;whiteSpace=wrap;html=1;" vertex="1" parent="1">
          <mxGeometry x="370" y="585" width="150" height="60" as="geometry" />
        </mxCell>
        <mxCell id="fSix446y4lYJShoWMJe9-14" value="+ contents" style="text;strokeColor=none;fillColor=none;align=left;verticalAlign=top;spacingLeft=4;spacingRight=4;overflow=hidden;rotatable=0;points=[[0,0.5],[1,0.5]];portConstraint=eastwest;whiteSpace=wrap;html=1;" vertex="1" parent="fSix446y4lYJShoWMJe9-13">
          <mxGeometry y="26" width="150" height="26" as="geometry" />
        </mxCell>
        <mxCell id="fSix446y4lYJShoWMJe9-15" value="" style="line;strokeWidth=1;fillColor=none;align=left;verticalAlign=middle;spacingTop=-1;spacingLeft=3;spacingRight=3;rotatable=0;labelPosition=right;points=[];portConstraint=eastwest;strokeColor=inherit;" vertex="1" parent="fSix446y4lYJShoWMJe9-13">
          <mxGeometry y="52" width="150" height="8" as="geometry" />
        </mxCell>
        <mxCell id="fSix446y4lYJShoWMJe9-16" value="EnvironmentVar" style="swimlane;fontStyle=1;childLayout=stackLayout;horizontal=1;startSize=30;horizontalStack=0;resizeParent=1;resizeParentMax=0;resizeLast=0;collapsible=1;marginBottom=0;whiteSpace=wrap;html=1;" vertex="1" parent="1">
          <mxGeometry x="-50" y="454" width="160" height="90" as="geometry" />
        </mxCell>
        <mxCell id="fSix446y4lYJShoWMJe9-17" value="&lt;font face=&quot;monospace&quot;&gt;+ name: string&lt;/font&gt;" style="text;strokeColor=none;fillColor=none;align=left;verticalAlign=middle;spacingLeft=4;spacingRight=4;overflow=hidden;points=[[0,0.5],[1,0.5]];portConstraint=eastwest;rotatable=0;whiteSpace=wrap;html=1;" vertex="1" parent="fSix446y4lYJShoWMJe9-16">
          <mxGeometry y="30" width="160" height="30" as="geometry" />
        </mxCell>
        <mxCell id="fSix446y4lYJShoWMJe9-18" value="+ value: string" style="text;strokeColor=none;fillColor=none;align=left;verticalAlign=middle;spacingLeft=4;spacingRight=4;overflow=hidden;points=[[0,0.5],[1,0.5]];portConstraint=eastwest;rotatable=0;whiteSpace=wrap;html=1;" vertex="1" parent="fSix446y4lYJShoWMJe9-16">
          <mxGeometry y="60" width="160" height="30" as="geometry" />
        </mxCell>
        <mxCell id="fSix446y4lYJShoWMJe9-19" style="edgeStyle=orthogonalEdgeStyle;rounded=0;orthogonalLoop=1;jettySize=auto;html=1;endArrow=diamondThin;endFill=1;" edge="1" parent="1" source="fSix446y4lYJShoWMJe9-1" target="fSix446y4lYJShoWMJe9-9">
          <mxGeometry relative="1" as="geometry">
            <Array as="points" />
            <mxPoint x="300" y="298" as="sourcePoint" />
            <mxPoint x="300" y="230" as="targetPoint" />
          </mxGeometry>
        </mxCell>
        <mxCell id="fSix446y4lYJShoWMJe9-20" value="n" style="edgeLabel;html=1;align=center;verticalAlign=middle;resizable=0;points=[];" connectable="0" vertex="1" parent="fSix446y4lYJShoWMJe9-19">
          <mxGeometry x="-0.84" y="2" relative="1" as="geometry">
            <mxPoint x="9" y="-7" as="offset" />
          </mxGeometry>
        </mxCell>
        <mxCell id="fSix446y4lYJShoWMJe9-21" value="1" style="edgeLabel;html=1;align=center;verticalAlign=middle;resizable=0;points=[];" connectable="0" vertex="1" parent="fSix446y4lYJShoWMJe9-19">
          <mxGeometry x="0.68" y="-4" relative="1" as="geometry">
            <mxPoint y="5" as="offset" />
          </mxGeometry>
        </mxCell>
        <mxCell id="fSix446y4lYJShoWMJe9-22" style="edgeStyle=orthogonalEdgeStyle;rounded=0;orthogonalLoop=1;jettySize=auto;html=1;endArrow=diamondThin;endFill=1;" edge="1" parent="1" source="fSix446y4lYJShoWMJe9-16" target="fSix446y4lYJShoWMJe9-4">
          <mxGeometry relative="1" as="geometry">
            <Array as="points" />
            <mxPoint x="300" y="404" as="sourcePoint" />
            <mxPoint x="300" y="358" as="targetPoint" />
          </mxGeometry>
        </mxCell>
        <mxCell id="fSix446y4lYJShoWMJe9-23" value="n" style="edgeLabel;html=1;align=center;verticalAlign=middle;resizable=0;points=[];" connectable="0" vertex="1" parent="fSix446y4lYJShoWMJe9-22">
          <mxGeometry x="-0.84" y="2" relative="1" as="geometry">
            <mxPoint x="9" y="-7" as="offset" />
          </mxGeometry>
        </mxCell>
        <mxCell id="fSix446y4lYJShoWMJe9-24" value="1" style="edgeLabel;html=1;align=center;verticalAlign=middle;resizable=0;points=[];" connectable="0" vertex="1" parent="fSix446y4lYJShoWMJe9-22">
          <mxGeometry x="0.68" y="-4" relative="1" as="geometry">
            <mxPoint y="5" as="offset" />
          </mxGeometry>
        </mxCell>
        <mxCell id="fSix446y4lYJShoWMJe9-25" style="edgeStyle=orthogonalEdgeStyle;rounded=0;orthogonalLoop=1;jettySize=auto;html=1;endArrow=diamondThin;endFill=1;" edge="1" parent="1" source="fSix446y4lYJShoWMJe9-13" target="fSix446y4lYJShoWMJe9-5">
          <mxGeometry relative="1" as="geometry">
            <Array as="points" />
            <mxPoint x="140" y="640" as="sourcePoint" />
            <mxPoint x="300" y="554" as="targetPoint" />
          </mxGeometry>
        </mxCell>
        <mxCell id="fSix446y4lYJShoWMJe9-26" value="n" style="edgeLabel;html=1;align=center;verticalAlign=middle;resizable=0;points=[];" connectable="0" vertex="1" parent="fSix446y4lYJShoWMJe9-25">
          <mxGeometry x="-0.84" y="2" relative="1" as="geometry">
            <mxPoint x="9" y="-7" as="offset" />
          </mxGeometry>
        </mxCell>
        <mxCell id="fSix446y4lYJShoWMJe9-27" value="1" style="edgeLabel;html=1;align=center;verticalAlign=middle;resizable=0;points=[];" connectable="0" vertex="1" parent="fSix446y4lYJShoWMJe9-25">
          <mxGeometry x="0.68" y="-4" relative="1" as="geometry">
            <mxPoint y="5" as="offset" />
          </mxGeometry>
        </mxCell>
        <mxCell id="fSix446y4lYJShoWMJe9-28" style="edgeStyle=orthogonalEdgeStyle;rounded=0;orthogonalLoop=1;jettySize=auto;html=1;endArrow=diamondThin;endFill=1;" edge="1" parent="1" source="fSix446y4lYJShoWMJe9-39" target="fSix446y4lYJShoWMJe9-3">
          <mxGeometry relative="1" as="geometry">
            <Array as="points" />
            <mxPoint x="595.04" y="529" as="sourcePoint" />
            <mxPoint x="300" y="554" as="targetPoint" />
          </mxGeometry>
        </mxCell>
        <mxCell id="fSix446y4lYJShoWMJe9-29" value="n" style="edgeLabel;html=1;align=center;verticalAlign=middle;resizable=0;points=[];" connectable="0" vertex="1" parent="fSix446y4lYJShoWMJe9-28">
          <mxGeometry x="-0.84" y="2" relative="1" as="geometry">
            <mxPoint x="9" y="-7" as="offset" />
          </mxGeometry>
        </mxCell>
        <mxCell id="fSix446y4lYJShoWMJe9-30" value="1" style="edgeLabel;html=1;align=center;verticalAlign=middle;resizable=0;points=[];" connectable="0" vertex="1" parent="fSix446y4lYJShoWMJe9-28">
          <mxGeometry x="0.68" y="-4" relative="1" as="geometry">
            <mxPoint x="-23" y="15" as="offset" />
          </mxGeometry>
        </mxCell>
        <mxCell id="fSix446y4lYJShoWMJe9-31" style="edgeStyle=orthogonalEdgeStyle;rounded=0;orthogonalLoop=1;jettySize=auto;html=1;endArrow=diamondThin;endFill=1;" edge="1" parent="1" source="fSix446y4lYJShoWMJe9-41" target="fSix446y4lYJShoWMJe9-2">
          <mxGeometry relative="1" as="geometry">
            <Array as="points" />
            <mxPoint x="785.04" y="528" as="sourcePoint" />
            <mxPoint x="380" y="479" as="targetPoint" />
          </mxGeometry>
        </mxCell>
        <mxCell id="fSix446y4lYJShoWMJe9-32" value="n" style="edgeLabel;html=1;align=center;verticalAlign=middle;resizable=0;points=[];" connectable="0" vertex="1" parent="fSix446y4lYJShoWMJe9-31">
          <mxGeometry x="-0.84" y="2" relative="1" as="geometry">
            <mxPoint x="9" y="-7" as="offset" />
          </mxGeometry>
        </mxCell>
        <mxCell id="fSix446y4lYJShoWMJe9-33" value="1" style="edgeLabel;html=1;align=center;verticalAlign=middle;resizable=0;points=[];" connectable="0" vertex="1" parent="fSix446y4lYJShoWMJe9-31">
          <mxGeometry x="0.68" y="-4" relative="1" as="geometry">
            <mxPoint x="-65" y="-5" as="offset" />
          </mxGeometry>
        </mxCell>
        <mxCell id="fSix446y4lYJShoWMJe9-34" value="FileReference" style="swimlane;fontStyle=1;align=center;verticalAlign=top;childLayout=stackLayout;horizontal=1;startSize=26;horizontalStack=0;resizeParent=1;resizeParentMax=0;resizeLast=0;collapsible=1;marginBottom=0;whiteSpace=wrap;html=1;" vertex="1" parent="1">
          <mxGeometry x="620" y="310" width="150" height="60" as="geometry" />
        </mxCell>
        <mxCell id="fSix446y4lYJShoWMJe9-35" value="+ path: string" style="text;strokeColor=none;fillColor=none;align=left;verticalAlign=top;spacingLeft=4;spacingRight=4;overflow=hidden;rotatable=0;points=[[0,0.5],[1,0.5]];portConstraint=eastwest;whiteSpace=wrap;html=1;" vertex="1" parent="fSix446y4lYJShoWMJe9-34">
          <mxGeometry y="26" width="150" height="26" as="geometry" />
        </mxCell>
        <mxCell id="fSix446y4lYJShoWMJe9-36" value="" style="line;strokeWidth=1;fillColor=none;align=left;verticalAlign=middle;spacingTop=-1;spacingLeft=3;spacingRight=3;rotatable=0;labelPosition=right;points=[];portConstraint=eastwest;strokeColor=inherit;" vertex="1" parent="fSix446y4lYJShoWMJe9-34">
          <mxGeometry y="52" width="150" height="8" as="geometry" />
        </mxCell>
        <mxCell id="fSix446y4lYJShoWMJe9-37" value="Extends" style="endArrow=block;endSize=16;endFill=0;html=1;rounded=0;" edge="1" parent="1" source="fSix446y4lYJShoWMJe9-39" target="fSix446y4lYJShoWMJe9-34">
          <mxGeometry width="160" relative="1" as="geometry">
            <mxPoint x="601.1199999999999" y="529" as="sourcePoint" />
            <mxPoint x="610" y="500" as="targetPoint" />
          </mxGeometry>
        </mxCell>
        <mxCell id="fSix446y4lYJShoWMJe9-38" value="Extends" style="endArrow=block;endSize=16;endFill=0;html=1;rounded=0;" edge="1" parent="1" source="fSix446y4lYJShoWMJe9-41" target="fSix446y4lYJShoWMJe9-34">
          <mxGeometry width="160" relative="1" as="geometry">
            <mxPoint x="778.1726907630523" y="528" as="sourcePoint" />
            <mxPoint x="656" y="482" as="targetPoint" />
          </mxGeometry>
        </mxCell>
        <mxCell id="fSix446y4lYJShoWMJe9-39" value="OutputFileReference" style="swimlane;fontStyle=1;align=center;verticalAlign=top;childLayout=stackLayout;horizontal=1;startSize=26;horizontalStack=0;resizeParent=1;resizeParentMax=0;resizeLast=0;collapsible=1;marginBottom=0;whiteSpace=wrap;html=1;" vertex="1" parent="1">
          <mxGeometry x="540" y="490" width="150" height="34" as="geometry" />
        </mxCell>
        <mxCell id="fSix446y4lYJShoWMJe9-40" value="" style="line;strokeWidth=1;fillColor=none;align=left;verticalAlign=middle;spacingTop=-1;spacingLeft=3;spacingRight=3;rotatable=0;labelPosition=right;points=[];portConstraint=eastwest;strokeColor=inherit;" vertex="1" parent="fSix446y4lYJShoWMJe9-39">
          <mxGeometry y="26" width="150" height="8" as="geometry" />
        </mxCell>
        <mxCell id="fSix446y4lYJShoWMJe9-41" value="&lt;span style=&quot;font-weight: 400;&quot;&gt;&amp;nbsp;&lt;/span&gt;InputFileReference" style="swimlane;fontStyle=1;align=center;verticalAlign=top;childLayout=stackLayout;horizontal=1;startSize=26;horizontalStack=0;resizeParent=1;resizeParentMax=0;resizeLast=0;collapsible=1;marginBottom=0;whiteSpace=wrap;html=1;" vertex="1" parent="1">
          <mxGeometry x="710" y="490" width="150" height="34" as="geometry" />
        </mxCell>
        <mxCell id="fSix446y4lYJShoWMJe9-42" value="" style="line;strokeWidth=1;fillColor=none;align=left;verticalAlign=middle;spacingTop=-1;spacingLeft=3;spacingRight=3;rotatable=0;labelPosition=right;points=[];portConstraint=eastwest;strokeColor=inherit;" vertex="1" parent="fSix446y4lYJShoWMJe9-41">
          <mxGeometry y="26" width="150" height="8" as="geometry" />
        </mxCell>
      </root>
    </mxGraphModel>
  </diagram>
  <diagram id="pdcYiNGwBZqNpqq2Pub1" name="SyntaxAnalyzer (Class)">
    <mxGraphModel grid="1" page="1" gridSize="10" guides="1" tooltips="1" connect="1" arrows="1" fold="1" pageScale="1" pageWidth="827" pageHeight="1169" math="0" shadow="0">
      <root>
        <mxCell id="0" />
        <mxCell id="1" parent="0" />
        <mxCell id="yoDpaM_tUyR2k10XzXtE-1" value="YAMLParser" style="swimlane;fontStyle=1;align=center;verticalAlign=top;childLayout=stackLayout;horizontal=1;startSize=26;horizontalStack=0;resizeParent=1;resizeParentMax=0;resizeLast=0;collapsible=1;marginBottom=0;whiteSpace=wrap;html=1;" vertex="1" parent="1">
          <mxGeometry x="250" y="270" width="350" height="112" as="geometry" />
        </mxCell>
        <mxCell id="yoDpaM_tUyR2k10XzXtE-3" value="" style="line;strokeWidth=1;fillColor=none;align=left;verticalAlign=middle;spacingTop=-1;spacingLeft=3;spacingRight=3;rotatable=0;labelPosition=right;points=[];portConstraint=eastwest;strokeColor=inherit;" vertex="1" parent="yoDpaM_tUyR2k10XzXtE-1">
          <mxGeometry y="26" width="350" height="8" as="geometry" />
        </mxCell>
        <mxCell id="yoDpaM_tUyR2k10XzXtE-4" value="+ parse(String yamlString): YAMLDocument" style="text;strokeColor=none;fillColor=none;align=left;verticalAlign=top;spacingLeft=4;spacingRight=4;overflow=hidden;rotatable=0;points=[[0,0.5],[1,0.5]];portConstraint=eastwest;whiteSpace=wrap;html=1;" vertex="1" parent="yoDpaM_tUyR2k10XzXtE-1">
          <mxGeometry y="34" width="350" height="26" as="geometry" />
        </mxCell>
        <mxCell id="yoDpaM_tUyR2k10XzXtE-5" value="+ tokenize(String yamlString): List&amp;lt;YAMLToken&amp;gt;" style="text;strokeColor=none;fillColor=none;align=left;verticalAlign=top;spacingLeft=4;spacingRight=4;overflow=hidden;rotatable=0;points=[[0,0.5],[1,0.5]];portConstraint=eastwest;whiteSpace=wrap;html=1;" vertex="1" parent="yoDpaM_tUyR2k10XzXtE-1">
          <mxGeometry y="60" width="350" height="26" as="geometry" />
        </mxCell>
        <mxCell id="yoDpaM_tUyR2k10XzXtE-6" value="+ validate(YAMLDocument doc): Boolean" style="text;strokeColor=none;fillColor=none;align=left;verticalAlign=top;spacingLeft=4;spacingRight=4;overflow=hidden;rotatable=0;points=[[0,0.5],[1,0.5]];portConstraint=eastwest;whiteSpace=wrap;html=1;" vertex="1" parent="yoDpaM_tUyR2k10XzXtE-1">
          <mxGeometry y="86" width="350" height="26" as="geometry" />
        </mxCell>
        <mxCell id="yoDpaM_tUyR2k10XzXtE-7" value="YAMLToken (aka Token)" style="swimlane;fontStyle=1;align=center;verticalAlign=top;childLayout=stackLayout;horizontal=1;startSize=26;horizontalStack=0;resizeParent=1;resizeParentMax=0;resizeLast=0;collapsible=1;marginBottom=0;whiteSpace=wrap;html=1;" vertex="1" parent="1">
          <mxGeometry x="540" y="427" width="350" height="112" as="geometry" />
        </mxCell>
        <mxCell id="yoDpaM_tUyR2k10XzXtE-8" value="" style="line;strokeWidth=1;fillColor=none;align=left;verticalAlign=middle;spacingTop=-1;spacingLeft=3;spacingRight=3;rotatable=0;labelPosition=right;points=[];portConstraint=eastwest;strokeColor=inherit;" vertex="1" parent="yoDpaM_tUyR2k10XzXtE-7">
          <mxGeometry y="26" width="350" height="8" as="geometry" />
        </mxCell>
        <mxCell id="yoDpaM_tUyR2k10XzXtE-9" value="+ type: YAML.ETokenType" style="text;strokeColor=none;fillColor=none;align=left;verticalAlign=top;spacingLeft=4;spacingRight=4;overflow=hidden;rotatable=0;points=[[0,0.5],[1,0.5]];portConstraint=eastwest;whiteSpace=wrap;html=1;" vertex="1" parent="yoDpaM_tUyR2k10XzXtE-7">
          <mxGeometry y="34" width="350" height="26" as="geometry" />
        </mxCell>
        <mxCell id="yoDpaM_tUyR2k10XzXtE-10" value="+ value: String" style="text;strokeColor=none;fillColor=none;align=left;verticalAlign=top;spacingLeft=4;spacingRight=4;overflow=hidden;rotatable=0;points=[[0,0.5],[1,0.5]];portConstraint=eastwest;whiteSpace=wrap;html=1;" vertex="1" parent="yoDpaM_tUyR2k10XzXtE-7">
          <mxGeometry y="60" width="350" height="26" as="geometry" />
        </mxCell>
        <mxCell id="yoDpaM_tUyR2k10XzXtE-11" value="+ (PK) position: uint16" style="text;strokeColor=none;fillColor=none;align=left;verticalAlign=top;spacingLeft=4;spacingRight=4;overflow=hidden;rotatable=0;points=[[0,0.5],[1,0.5]];portConstraint=eastwest;whiteSpace=wrap;html=1;" vertex="1" parent="yoDpaM_tUyR2k10XzXtE-7">
          <mxGeometry y="86" width="350" height="26" as="geometry" />
        </mxCell>
        <mxCell id="yoDpaM_tUyR2k10XzXtE-17" value="YAMLDocument" style="swimlane;fontStyle=1;align=center;verticalAlign=top;childLayout=stackLayout;horizontal=1;startSize=26;horizontalStack=0;resizeParent=1;resizeParentMax=0;resizeLast=0;collapsible=1;marginBottom=0;whiteSpace=wrap;html=1;" vertex="1" parent="1">
          <mxGeometry x="80" y="440" width="270" height="86" as="geometry" />
        </mxCell>
        <mxCell id="yoDpaM_tUyR2k10XzXtE-18" value="+ nodes: List&amp;lt;YAMLNode&amp;gt;" style="text;strokeColor=none;fillColor=none;align=left;verticalAlign=top;spacingLeft=4;spacingRight=4;overflow=hidden;rotatable=0;points=[[0,0.5],[1,0.5]];portConstraint=eastwest;whiteSpace=wrap;html=1;" vertex="1" parent="yoDpaM_tUyR2k10XzXtE-17">
          <mxGeometry y="26" width="270" height="26" as="geometry" />
        </mxCell>
        <mxCell id="yoDpaM_tUyR2k10XzXtE-19" value="" style="line;strokeWidth=1;fillColor=none;align=left;verticalAlign=middle;spacingTop=-1;spacingLeft=3;spacingRight=3;rotatable=0;labelPosition=right;points=[];portConstraint=eastwest;strokeColor=inherit;" vertex="1" parent="yoDpaM_tUyR2k10XzXtE-17">
          <mxGeometry y="52" width="270" height="8" as="geometry" />
        </mxCell>
        <mxCell id="yoDpaM_tUyR2k10XzXtE-20" value="+ getNodeByPath(String path): YAMLNode" style="text;strokeColor=none;fillColor=none;align=left;verticalAlign=top;spacingLeft=4;spacingRight=4;overflow=hidden;rotatable=0;points=[[0,0.5],[1,0.5]];portConstraint=eastwest;whiteSpace=wrap;html=1;" vertex="1" parent="yoDpaM_tUyR2k10XzXtE-17">
          <mxGeometry y="60" width="270" height="26" as="geometry" />
        </mxCell>
        <mxCell id="yoDpaM_tUyR2k10XzXtE-21" value="&lt;div&gt;&amp;lt;&amp;lt;abstract&amp;gt;&amp;gt;&lt;/div&gt;YAMLNode" style="swimlane;fontStyle=1;align=center;verticalAlign=top;childLayout=stackLayout;horizontal=1;startSize=26;horizontalStack=0;resizeParent=1;resizeParentMax=0;resizeLast=0;collapsible=1;marginBottom=0;whiteSpace=wrap;html=1;" vertex="1" parent="1">
          <mxGeometry x="105" y="610" width="220" height="86" as="geometry" />
        </mxCell>
        <mxCell id="yoDpaM_tUyR2k10XzXtE-22" value="+ range: Range" style="text;strokeColor=none;fillColor=none;align=left;verticalAlign=top;spacingLeft=4;spacingRight=4;overflow=hidden;rotatable=0;points=[[0,0.5],[1,0.5]];portConstraint=eastwest;whiteSpace=wrap;html=1;" vertex="1" parent="yoDpaM_tUyR2k10XzXtE-21">
          <mxGeometry y="26" width="220" height="26" as="geometry" />
        </mxCell>
        <mxCell id="yoDpaM_tUyR2k10XzXtE-23" value="" style="line;strokeWidth=1;fillColor=none;align=left;verticalAlign=middle;spacingTop=-1;spacingLeft=3;spacingRight=3;rotatable=0;labelPosition=right;points=[];portConstraint=eastwest;strokeColor=inherit;" vertex="1" parent="yoDpaM_tUyR2k10XzXtE-21">
          <mxGeometry y="52" width="220" height="8" as="geometry" />
        </mxCell>
        <mxCell id="yoDpaM_tUyR2k10XzXtE-24" value="+ getType(): String" style="text;strokeColor=none;fillColor=none;align=left;verticalAlign=top;spacingLeft=4;spacingRight=4;overflow=hidden;rotatable=0;points=[[0,0.5],[1,0.5]];portConstraint=eastwest;whiteSpace=wrap;html=1;" vertex="1" parent="yoDpaM_tUyR2k10XzXtE-21">
          <mxGeometry y="60" width="220" height="26" as="geometry" />
        </mxCell>
        <mxCell id="yoDpaM_tUyR2k10XzXtE-26" value="YAMLScalar" style="swimlane;fontStyle=1;align=center;verticalAlign=top;childLayout=stackLayout;horizontal=1;startSize=26;horizontalStack=0;resizeParent=1;resizeParentMax=0;resizeLast=0;collapsible=1;marginBottom=0;whiteSpace=wrap;html=1;" vertex="1" parent="1">
          <mxGeometry x="-120" y="740" width="220" height="60" as="geometry" />
        </mxCell>
        <mxCell id="yoDpaM_tUyR2k10XzXtE-27" value="+ value: String" style="text;strokeColor=none;fillColor=none;align=left;verticalAlign=top;spacingLeft=4;spacingRight=4;overflow=hidden;rotatable=0;points=[[0,0.5],[1,0.5]];portConstraint=eastwest;whiteSpace=wrap;html=1;" vertex="1" parent="yoDpaM_tUyR2k10XzXtE-26">
          <mxGeometry y="26" width="220" height="26" as="geometry" />
        </mxCell>
        <mxCell id="yoDpaM_tUyR2k10XzXtE-28" value="" style="line;strokeWidth=1;fillColor=none;align=left;verticalAlign=middle;spacingTop=-1;spacingLeft=3;spacingRight=3;rotatable=0;labelPosition=right;points=[];portConstraint=eastwest;strokeColor=inherit;" vertex="1" parent="yoDpaM_tUyR2k10XzXtE-26">
          <mxGeometry y="52" width="220" height="8" as="geometry" />
        </mxCell>
        <mxCell id="yoDpaM_tUyR2k10XzXtE-30" value="YAMLSequence" style="swimlane;fontStyle=1;align=center;verticalAlign=top;childLayout=stackLayout;horizontal=1;startSize=26;horizontalStack=0;resizeParent=1;resizeParentMax=0;resizeLast=0;collapsible=1;marginBottom=0;whiteSpace=wrap;html=1;" vertex="1" parent="1">
          <mxGeometry x="110" y="740" width="220" height="60" as="geometry" />
        </mxCell>
        <mxCell id="yoDpaM_tUyR2k10XzXtE-31" value="+ items: List&amp;lt;YAMLNode&amp;gt;" style="text;strokeColor=none;fillColor=none;align=left;verticalAlign=top;spacingLeft=4;spacingRight=4;overflow=hidden;rotatable=0;points=[[0,0.5],[1,0.5]];portConstraint=eastwest;whiteSpace=wrap;html=1;" vertex="1" parent="yoDpaM_tUyR2k10XzXtE-30">
          <mxGeometry y="26" width="220" height="26" as="geometry" />
        </mxCell>
        <mxCell id="yoDpaM_tUyR2k10XzXtE-32" value="" style="line;strokeWidth=1;fillColor=none;align=left;verticalAlign=middle;spacingTop=-1;spacingLeft=3;spacingRight=3;rotatable=0;labelPosition=right;points=[];portConstraint=eastwest;strokeColor=inherit;" vertex="1" parent="yoDpaM_tUyR2k10XzXtE-30">
          <mxGeometry y="52" width="220" height="8" as="geometry" />
        </mxCell>
        <mxCell id="yoDpaM_tUyR2k10XzXtE-33" value="YAMLMapping" style="swimlane;fontStyle=1;align=center;verticalAlign=top;childLayout=stackLayout;horizontal=1;startSize=26;horizontalStack=0;resizeParent=1;resizeParentMax=0;resizeLast=0;collapsible=1;marginBottom=0;whiteSpace=wrap;html=1;" vertex="1" parent="1">
          <mxGeometry x="340" y="740" width="220" height="60" as="geometry" />
        </mxCell>
        <mxCell id="yoDpaM_tUyR2k10XzXtE-34" value="+ mappings: List&amp;lt;KeyValue&amp;gt;" style="text;strokeColor=none;fillColor=none;align=left;verticalAlign=top;spacingLeft=4;spacingRight=4;overflow=hidden;rotatable=0;points=[[0,0.5],[1,0.5]];portConstraint=eastwest;whiteSpace=wrap;html=1;" vertex="1" parent="yoDpaM_tUyR2k10XzXtE-33">
          <mxGeometry y="26" width="220" height="26" as="geometry" />
        </mxCell>
        <mxCell id="yoDpaM_tUyR2k10XzXtE-35" value="" style="line;strokeWidth=1;fillColor=none;align=left;verticalAlign=middle;spacingTop=-1;spacingLeft=3;spacingRight=3;rotatable=0;labelPosition=right;points=[];portConstraint=eastwest;strokeColor=inherit;" vertex="1" parent="yoDpaM_tUyR2k10XzXtE-33">
          <mxGeometry y="52" width="220" height="8" as="geometry" />
        </mxCell>
        <mxCell id="yoDpaM_tUyR2k10XzXtE-37" value="1" style="endArrow=open;html=1;endSize=12;startArrow=diamondThin;startSize=14;startFill=1;edgeStyle=orthogonalEdgeStyle;align=left;verticalAlign=bottom;rounded=0;" edge="1" parent="1" source="yoDpaM_tUyR2k10XzXtE-17" target="yoDpaM_tUyR2k10XzXtE-21">
          <mxGeometry x="-0.6667" y="15" relative="1" as="geometry">
            <mxPoint x="150" y="600" as="sourcePoint" />
            <mxPoint x="310" y="600" as="targetPoint" />
            <mxPoint as="offset" />
          </mxGeometry>
        </mxCell>
        <mxCell id="yoDpaM_tUyR2k10XzXtE-38" value="" style="endArrow=open;endSize=12;dashed=1;html=1;rounded=0;" edge="1" parent="1" source="yoDpaM_tUyR2k10XzXtE-1" target="yoDpaM_tUyR2k10XzXtE-7">
          <mxGeometry width="160" relative="1" as="geometry">
            <mxPoint x="100" y="690" as="sourcePoint" />
            <mxPoint x="260" y="690" as="targetPoint" />
          </mxGeometry>
        </mxCell>
        <mxCell id="yoDpaM_tUyR2k10XzXtE-39" value="" style="endArrow=open;endSize=12;dashed=1;html=1;rounded=0;" edge="1" parent="1" source="yoDpaM_tUyR2k10XzXtE-1" target="yoDpaM_tUyR2k10XzXtE-17">
          <mxGeometry width="160" relative="1" as="geometry">
            <mxPoint x="538" y="392" as="sourcePoint" />
            <mxPoint x="622" y="437" as="targetPoint" />
          </mxGeometry>
        </mxCell>
        <mxCell id="yoDpaM_tUyR2k10XzXtE-43" value="" style="endArrow=block;endSize=16;endFill=0;html=1;rounded=0;" edge="1" parent="1" source="yoDpaM_tUyR2k10XzXtE-33" target="yoDpaM_tUyR2k10XzXtE-21">
          <mxGeometry width="160" relative="1" as="geometry">
            <mxPoint x="325" y="650" as="sourcePoint" />
            <mxPoint x="485" y="650" as="targetPoint" />
          </mxGeometry>
        </mxCell>
        <mxCell id="yoDpaM_tUyR2k10XzXtE-45" value="" style="endArrow=block;endSize=16;endFill=0;html=1;rounded=0;" edge="1" parent="1" source="yoDpaM_tUyR2k10XzXtE-30" target="yoDpaM_tUyR2k10XzXtE-21">
          <mxGeometry width="160" relative="1" as="geometry">
            <mxPoint x="400" y="750" as="sourcePoint" />
            <mxPoint x="311" y="706" as="targetPoint" />
          </mxGeometry>
        </mxCell>
        <mxCell id="yoDpaM_tUyR2k10XzXtE-46" value="" style="endArrow=block;endSize=16;endFill=0;html=1;rounded=0;" edge="1" parent="1" source="yoDpaM_tUyR2k10XzXtE-26" target="yoDpaM_tUyR2k10XzXtE-21">
          <mxGeometry width="160" relative="1" as="geometry">
            <mxPoint x="229" y="750" as="sourcePoint" />
            <mxPoint x="227" y="706" as="targetPoint" />
          </mxGeometry>
        </mxCell>
      </root>
    </mxGraphModel>
  </diagram>
</mxfile>
